<svg width="256" height="256" viewBox="0 0 256 256" fill="none" xmlns="http://www.w3.org/2000/svg">
  <rect width="256" height="256" rx="48" fill="#0F172A"/>
  <path d="M64 78C64 68.0589 72.0589 60 82 60H174C183.941 60 192 68.0589 192 78V178C192 187.941 183.941 196 174 196H82C72.0589 196 64 187.941 64 178V78Z" fill="#1E40AF"/>
  <path d="M84 88C84 83.5817 87.5817 80 92 80H164C168.418 80 172 83.5817 172 88V112C172 116.418 168.418 120 164 120H92C87.5817 120 84 116.418 84 112V88Z" fill="#60A5FA"/>
  <path d="M86 146H170" stroke="#E0F2FE" stroke-width="12" stroke-linecap="round"/>
  <path d="M86 170H142" stroke="#E0F2FE" stroke-width="12" stroke-linecap="round"/>
  <path d="M182 152L214 184L182 216" stroke="#22C55E" stroke-width="14" stroke-linecap="round" stroke-linejoin="round"/>
  <path d="M208 184H136" stroke="#22C55E" stroke-width="14" stroke-linecap="round"/>
  <path d="M104 96L120 108L152 88" stroke="#0F172A" stroke-width="10" stroke-linecap="round" stroke-linejoin="round"/>
</svg>
